<?xml version="1.0" encoding="utf-8"?>
<!-- Generator: Adobe Illustrator 18.1.1, SVG Export Plug-In . SVG Version: 6.00 Build 0)  -->
<svg version="1.2" baseProfile="tiny" id="Warstwa_1"
	 xmlns="http://www.w3.org/2000/svg" xmlns:xlink="http://www.w3.org/1999/xlink" x="0px" y="0px" viewBox="0 0 100 100"
	 xml:space="preserve">
<path d="M91.2,50c4.2,3.7,7.3,8.7,8.8,14.3H84.7c-2.5-4.3-7.1-7.1-12.4-7.1h0v0h-58v7.1H0V35.7h14.3v7.1h58v0h0
	c5.3,0,9.9-2.9,12.4-7.1H100C98.5,41.3,95.4,46.3,91.2,50z M84.7,78.6c-2.5,4.3-7.1,7.1-12.4,7.1h0v0h-58v-7.1H0V100h0v0h72.3h0
	c13.3,0,24.5-9.1,27.7-21.4H84.7z M14.3,21.4v-7.1h58v0h0c5.3,0,9.9,2.9,12.4,7.1H100C96.8,9.1,85.6,0,72.3,0h0h-58H0h0v21.4H14.3z"
	/>
</svg>
