<?xml version="1.0" encoding="utf-8"?>
<!-- Generator: Adobe Illustrator 18.1.1, SVG Export Plug-In . SVG Version: 6.00 Build 0)  -->
<svg version="1.2" baseProfile="tiny" id="Warstwa_1"
	 xmlns="http://www.w3.org/2000/svg" xmlns:xlink="http://www.w3.org/1999/xlink" x="0px" y="0px" viewBox="0 0 100 100"
	 xml:space="preserve">
<g>
	<path id="Behance" d="M90.3,27.7H65.3v-6.2h25.1L90.3,27.7L90.3,27.7z M48.6,53.2c1.6,2.5,2.4,5.5,2.4,9.1c0,3.7-0.9,7-2.8,9.9
		c-1.2,1.9-2.6,3.6-4.4,4.9c-2,1.5-4.3,2.6-7,3.1c-2.7,0.6-5.6,0.8-8.8,0.8H0V18.9h30c7.6,0.1,12.9,2.3,16.1,6.6
		c1.9,2.6,2.8,5.8,2.8,9.5c0,3.8-1,6.8-2.9,9.2c-1.1,1.3-2.6,2.5-4.7,3.5C44.6,48.9,47,50.7,48.6,53.2z M14.3,43.4h13.2
		c2.7,0,4.9-0.5,6.6-1.5c1.7-1,2.5-2.9,2.5-5.5c0-2.9-1.1-4.8-3.3-5.7c-1.9-0.6-4.4-1-7.3-1H14.3V43.4z M37.9,61.4
		c0-3.2-1.3-5.5-4-6.7c-1.5-0.7-3.6-1-6.2-1.1H14.3v16.6h13.1c2.7,0,4.8-0.4,6.3-1.1C36.5,67.9,37.9,65.3,37.9,61.4z M99.6,51.3
		c0.3,2,0.4,5,0.4,8.8H67.5c0.2,4.5,1.7,7.6,4.7,9.4c1.8,1.1,3.9,1.7,6.4,1.7c2.6,0,4.8-0.7,6.5-2c0.9-0.7,1.7-1.8,2.4-3.1h11.9
		c-0.3,2.6-1.7,5.3-4.3,8.1c-4,4.3-9.6,6.5-16.8,6.5c-5.9,0-11.2-1.8-15.7-5.5c-4.5-3.7-6.8-9.6-6.8-17.9c0-7.7,2-13.7,6.1-17.8
		c4.1-4.1,9.4-6.2,15.9-6.2c3.9,0,7.4,0.7,10.5,2.1c3.1,1.4,5.7,3.6,7.7,6.6C97.9,44.8,99.1,47.8,99.6,51.3z M87.9,52.5
		c-0.2-3.1-1.3-5.4-3.1-7c-1.8-1.6-4.2-2.4-6.9-2.4c-3,0-5.3,0.9-7,2.6c-1.7,1.7-2.7,4-3.1,6.9L87.9,52.5L87.9,52.5z"/>
</g>
</svg>
