<?xml version="1.0" encoding="utf-8"?>
<!-- Generator: Adobe Illustrator 18.1.1, SVG Export Plug-In . SVG Version: 6.00 Build 0)  -->
<svg version="1.2" baseProfile="tiny" id="Warstwa_1"
	 xmlns="http://www.w3.org/2000/svg" xmlns:xlink="http://www.w3.org/1999/xlink" x="0px" y="0px" viewBox="0 0 100 100"
	 xml:space="preserve">
<g>
	<path id="Facebook" d="M36.8,19.4c0,2.5,0,13.8,0,13.8H26.7V50h10.1v50h20.7V50h13.9c0,0,1.3-8.1,1.9-16.9c-1.8,0-15.8,0-15.8,0
		s0-9.8,0-11.5c0-1.7,2.3-4,4.5-4c2.2,0,6.9,0,11.3,0c0-2.3,0-10.2,0-17.5C67.5,0,60.9,0,58,0C36.2,0,36.8,16.9,36.8,19.4z"/>
</g>
</svg>
