<?xml version="1.0" encoding="utf-8"?>
<!-- Generator: Adobe Illustrator 18.1.1, SVG Export Plug-In . SVG Version: 6.00 Build 0)  -->
<svg version="1.2" baseProfile="tiny" id="Warstwa_1"
	 xmlns="http://www.w3.org/2000/svg" xmlns:xlink="http://www.w3.org/1999/xlink" x="0px" y="0px" viewBox="0 0 100 100"
	 xml:space="preserve">
<g>
	<path id="Github__x28_alt_x29_" d="M73,11.7c1.3,3,2.1,7.9,0.9,11.4c5.1,4.4,6.9,15.1,4.4,23.8c7.3,0.6,16-0.3,21.7,2
		c-5.3-0.7-12.5-2-19.2-1.5c-1.3,0.1-3.2,0-3.1,1.8c7.9,0.6,15.7,1.3,22.1,3.3c-6.4-1-14.2-2.6-22.1-2.9c-3.3,6.5-9.9,9.7-19,10.3
		c1,2.1,2.9,2.9,3.3,6.4c0.7,5.1-1.1,12.6,0.7,16.1c0.8,1.6,2.2,1.7,3.1,3.1c-2.2,2.6-7.8-0.3-8.4-3.1c-1.1-4.8,1.6-12.2-1.3-15.4
		c0.2,5.2-1.2,12.5,0.2,17.2c0.6,1.8,2.2,2.5,1.8,4.2c-10.4,1.1-6-13.4-7.7-22c-1.6,0.1-0.9,2.3-0.9,3.3c0,8.4,1.7,19.8-7.3,18.7
		c-0.3-1.8,1.2-2.4,1.8-4c1.6-4.7-0.3-11.7,0.4-17.4c-3.4,2.6,0.4,11.6-1.8,16.3c-1.2,2.7-5.2,3.8-8.2,2.6c0.4-2,2.4-1.7,3.3-3.5
		c1.2-2.6,0-6.3,0.4-10.1C31.7,73.5,26.8,72,24.3,68c-1.1-1.8-1.3-3.9-2.7-5.5c-1.3-1.6-3.4-1.8-4-4c7.9-1.9,8.2,8.1,15.3,8.4
		c2.2,0.1,3.3-0.6,5.3-1.1c0.6-2.5,1.8-4.4,3.5-5.7c-8.8-1.2-16.1-3.9-19.5-10.6C14.3,49.9,7,51,0.2,52.6c6.2-2.2,13.8-3,21.9-3.3
		c-0.5-2.9-4.7-2.1-7.3-2C10,47.5,3.9,48.1,0,48.9c5.6-2,13.4-1.7,21-1.8c-2.3-7.3-1.5-18.8,3.5-23.1c-1.4-3.6-1-9.5,0.9-12.3
		c5.6,0.3,9.1,2.7,12.6,5.1c4.4-1.3,9-1.9,15-1.5c2.5,0.1,5.2,1.3,7.1,1.1c1.9-0.2,3.9-2.3,5.8-3.1C68.3,12.2,70.3,11.8,73,11.7z"/>
</g>
</svg>
