<?xml version="1.0" encoding="utf-8"?>
<!-- Generator: Adobe Illustrator 18.1.1, SVG Export Plug-In . SVG Version: 6.00 Build 0)  -->
<svg version="1.2" baseProfile="tiny" id="Warstwa_1"
	 xmlns="http://www.w3.org/2000/svg" xmlns:xlink="http://www.w3.org/1999/xlink" x="0px" y="0px" viewBox="0 0 338 17.1"
	 xml:space="preserve">
<text transform="matrix(1 0 0 1 -0.4285 16.1311)" font-family="'Orbitron-Bold'" font-size="20.9108">b</text>
<text transform="matrix(1 0 0 1 18.9578 16.1311)" font-family="'Orbitron-Bold'" font-size="20.9108">a</text>
<text transform="matrix(1 0 0 1 38.4441 16.1311)" font-family="'Orbitron-Bold'" font-size="20.9108">r</text>
<text transform="matrix(1 0 0 1 58.1194 16.1311)" font-family="'Orbitron-Bold'" font-size="20.9108">t</text>
<text transform="matrix(1 0 0 1 76.3718 16.1311)" font-family="'Orbitron-Bold'" font-size="20.9108">o</text>
<text transform="matrix(1 0 0 1 95.7371 16.1311)" font-family="'Orbitron-Bold'" font-size="20.9108">s</text>
<text transform="matrix(1 0 0 1 114.9978 16.1311)" font-family="'Orbitron-Bold'" font-size="20.9108">z</text>
<text transform="matrix(1 0 0 1 134.2566 16.1311)" font-family="'Orbitron-Bold'" font-size="20.9108"> </text>
<text transform="matrix(1 0 0 1 142.7883 16.1311)" font-family="'Orbitron-Bold'" font-size="20.9108">W</text>
<text transform="matrix(1 0 0 1 169.5891 16.1311)" font-family="'Orbitron-Bold'" font-size="20.9108">i</text>
<text transform="matrix(1 0 0 1 176.4475 16.1311)" font-family="'Orbitron-Bold'" font-size="20.9108">e</text>
<text transform="matrix(1 0 0 1 194.55 16.1311)" font-family="'Orbitron-Bold'" font-size="20.9108">r</text>
<text transform="matrix(1 0 0 1 214.2249 16.1311)" font-family="'Orbitron-Bold'" font-size="20.9108">t</text>
<text transform="matrix(1 0 0 1 232.4441 16.1311)" font-family="'Orbitron-Bold'" font-size="20.9108">l</text>
<text transform="matrix(1 0 0 1 251.2532 16.1311)" font-family="'Orbitron-Bold'" font-size="20.9108">e</text>
<text transform="matrix(1 0 0 1 269.5667 16.1311)" font-family="'Orbitron-Bold'" font-size="20.9108">w</text>
<text transform="matrix(1 0 0 1 296.0686 16.1311)" font-family="'Orbitron-Bold'" font-size="20.9108">s</text>
<text transform="matrix(1 0 0 1 315.2664 16.1311)" font-family="'Orbitron-Bold'" font-size="20.9108">k</text>
<text transform="matrix(1 0 0 1 334.0046 16.1311)" font-family="'Orbitron-Bold'" font-size="20.9108">i</text>
</svg>
