<?xml version="1.0" encoding="utf-8"?>
<!-- Generator: Adobe Illustrator 18.1.1, SVG Export Plug-In . SVG Version: 6.00 Build 0)  -->
<svg version="1.2" baseProfile="tiny" id="Warstwa_1"
	 xmlns="http://www.w3.org/2000/svg" xmlns:xlink="http://www.w3.org/1999/xlink" x="0px" y="0px" viewBox="0 0 55.7 124"
	 xml:space="preserve">
<path d="M27.8,102.3C12.5,102.3,0,89.8,0,74.5v-25c0-15.3,12.5-27.8,27.8-27.8s27.8,12.5,27.8,27.8v25
	C55.7,89.8,43.2,102.3,27.8,102.3z M27.8,27.3c-12.2,0-22.2,9.9-22.2,22.2v25c0,12.2,9.9,22.2,22.2,22.2S50,86.7,50,74.5v-25
	C50,37.3,40.1,27.3,27.8,27.3z"/>
<path d="M27.8,52.3c-1.6,0-2.8-1.3-2.8-2.8v-9.7c0-1.6,1.3-2.8,2.8-2.8c1.6,0,2.8,1.3,2.8,2.8v9.7C30.7,51,29.4,52.3,27.8,52.3z"/>
<path d="M27.8,124c-1.8,0-3.6-0.5-5.2-1.6l-9.9-6.6c-1.3-0.9-1.7-2.6-0.8-3.9c0.9-1.3,2.6-1.7,3.9-0.8l9.9,6.6
	c1.3,0.8,2.9,0.8,4.2,0l9.9-6.6c1.3-0.9,3.1-0.5,3.9,0.8c0.9,1.3,0.5,3.1-0.8,3.9l-9.9,6.6C31.5,123.5,29.7,124,27.8,124z"/>
<path d="M14.3,13.4c-0.9,0-1.8-0.4-2.4-1.3c-0.9-1.3-0.5-3.1,0.8-3.9l9.9-6.6c3.2-2.1,7.3-2.1,10.5,0l9.9,6.6
	c1.3,0.9,1.7,2.6,0.8,3.9c-0.9,1.3-2.6,1.7-3.9,0.8l-9.9-6.6c-1.3-0.8-2.9-0.8-4.2,0l-9.9,6.6C15.4,13.2,14.8,13.4,14.3,13.4z"/>
</svg>
